Coordinates
version=1
nRows=12
nColumns=42
inDegrees=yes

Units are S.I. units (second, meters, Newtons, ...)
If the header above contains a line with 'inDegrees', this indicates whether rotational values are in degrees (yes) or radians (no).

endheader
time	pelvis_tilt	pelvis_list	pelvis_rotation	pelvis_tx	pelvis_ty	pelvis_tz	hip_flexion_r	hip_adduction_r	hip_rotation_r	knee_angle_r	knee_adduction_r	knee_angle_r_beta	ankle_angle_r	subtalar_angle_r	mtp_angle_r	hip_flexion_l	hip_adduction_l	hip_rotation_l	knee_angle_l	knee_adduction_l	knee_angle_l_beta	ankle_angle_l	subtalar_angle_l	mtp_angle_l	lumbar_extension	lumbar_bending	lumbar_rotation	arm_flex_r	arm_add_r	arm_rot_r	elbow_flex_r	pro_sup_r	wrist_flex_r	wrist_dev_r	arm_flex_l	arm_add_l	arm_rot_l	elbow_flex_l	pro_sup_l	wrist_flex_l	wrist_dev_l
      0.50000000	      7.98898075	      6.18151762	     -4.55391013	     -1.61108101	      0.97568081	      0.34358507	    -20.75682535	     -7.00737296	    -25.86099361	     18.79038844	     -2.97724431	      0.32795415	     17.48159255	     18.06526593	     -9.51276235	     10.19374588	      5.23646250	    -15.75147052	      5.07109021	     -2.83098943	      0.08850722	     -7.60867558	     13.97408167	     -9.51276235	    -21.57874671	    -12.09232662	      6.91599058	     24.33371590	    -16.24485252	     25.83385157	     41.06848438	     90.00000001	      0.00000000	      0.00000000	    -15.03430044	    -11.86571097	      4.51717220	     39.64887680	     90.00000001	      0.00000000	      0.00000000
      0.51000000	      7.81077931	      6.43476764	     -4.56769491	     -1.60210235	      0.97660114	      0.34169764	    -20.68644201	     -7.65588527	    -26.01100194	     19.58387890	     -3.01450791	      0.34180317	     16.26322234	     17.97358220	     -9.48071175	      9.67148878	      5.72351249	    -16.00070751	      4.60107579	     -2.88333756	      0.08030392	     -8.07139497	     14.24259928	     -9.48071175	    -21.32220920	    -12.43374510	      6.69560194	     23.68919414	    -16.10324106	     25.68407242	     40.99422012	     90.00000001	      0.00000000	      0.00000000	    -14.68798147	    -12.01139539	      4.67570593	     39.45402330	     90.00000001	      0.00000000	      0.00000000
      0.52000000	      7.65046536	      6.73028929	     -4.49809673	     -1.59308285	      0.97767122	      0.33954661	    -20.55844893	     -8.39493895	    -26.24743232	     20.57918268	     -3.01413131	      0.35917450	     15.03968506	     17.87093915	     -9.44333520	      9.15298926	      6.30415116	    -16.14285249	      4.17530345	     -2.97259762	      0.07287279	     -8.37142984	     14.50015396	     -9.44333520	    -21.11798406	    -12.79178404	      6.37867497	     22.98792597	    -15.96522892	     25.51214535	     40.94957447	     90.00000001	      0.00000000	      0.00000000	    -14.33442148	    -12.21033891	      4.86119116	     39.30326812	     90.00000001	      0.00000000	      0.00000000
      0.53000000	      7.52917799	      6.88198170	     -4.40785498	     -1.58419444	      0.97894653	      0.33748731	    -20.35012645	     -8.99342837	    -26.42175350	     21.76898306	     -3.04041886	      0.37994043	     13.56689242	     17.68922988	     -9.41961931	      8.62197455	      6.65544324	    -16.20429928	      3.90593559	     -2.93081743	      0.06817144	     -8.33720867	     14.66972662	     -9.41961931	    -21.00123078	    -12.99116502	      6.09481997	     22.31348164	    -15.87028381	     25.41588039	     40.84604208	     90.00000001	      0.00000000	      0.00000000	    -13.90384931	    -12.38916872	      4.96475096	     39.17792793	     90.00000001	      0.00000000	      0.00000000
      0.54000000	      7.46079418	      7.00112358	     -4.28975435	     -1.57537160	      0.98042581	      0.33537204	    -20.08300681	     -9.60378081	    -26.60975608	     23.18219967	     -3.05303350	      0.40460571	     12.00698910	     17.40956805	     -9.39955491	      8.04794498	      6.98286663	    -16.16455799	      3.69232231	     -2.88813576	      0.06444318	     -8.21045671	     14.85897078	     -9.39955491	    -20.97458803	    -13.14095011	      5.75206080	     21.63653843	    -15.74326510	     25.29549153	     40.76765322	     90.00000001	      0.00000000	      0.00000000	    -13.43813457	    -12.56922483	      5.07453579	     39.03669748	     90.00000001	      0.00000000	      0.00000000
      0.55000000	      7.43164480	      7.08544809	     -4.13832691	     -1.56658577	      0.98199911	      0.33317233	    -19.73347784	    -10.19423044	    -26.81321864	     24.81063049	     -3.12526143	      0.43302719	     10.34619089	     17.02254792	     -9.38118130	      7.43207667	      7.27835543	    -16.05992452	      3.51442322	     -2.84620707	      0.06133826	     -7.97100266	     15.04341564	     -9.38118130	    -21.01687301	    -13.23272694	      5.38674398	     20.94648235	    -15.64090504	     25.15125865	     40.67455248	     90.00000001	      0.00000000	      0.00000000	    -12.91002648	    -12.77366681	      5.18220656	     38.89957798	     90.00000001	      0.00000000	      0.00000000
      0.56000000	      7.40303877	      7.21043899	     -3.97904890	     -1.55778470	      0.98360988	      0.33094719	    -19.23520276	    -10.88064090	    -27.20149577	     26.67716280	     -3.28710649	      0.46560433	      8.47790767	     16.40692966	     -9.36110194	      6.80046818	      7.65086726	    -15.88383616	      3.29422862	     -2.85344236	      0.05749514	     -7.64153496	     15.24335262	     -9.36110194	    -21.05535976	    -13.37226881	      5.08561802	     20.17156648	    -15.56951135	     24.96280623	     40.54343281	     90.00000001	      0.00000000	      0.00000000	    -12.31493635	    -13.00335864	      5.32055795	     38.73441857	     90.00000001	      0.00000000	      0.00000000
      0.57000000	      7.08521980	      7.57899375	     -3.75338118	     -1.54915988	      0.98470132	      0.32833988	    -18.18909851	    -11.92291752	    -27.68960191	     29.04433784	     -3.49575521	      0.50691932	      6.61717406	     15.10270617	     -9.25674703	      6.46865614	      8.42013937	    -15.24678706	      2.93430319	     -3.08514808	      0.05121325	     -7.49304570	     14.85173169	     -9.25674703	    -20.79723286	    -13.72933611	      4.74060501	     19.23310331	    -15.37306484	     24.25553990	     40.41579715	     90.00000001	      0.00000000	      0.00000000	    -11.65629938	    -13.36903401	      5.94246644	     38.53328049	     90.00000001	      0.00000000	      0.00000000
      0.58000000	      7.14173605	      7.57047973	     -3.57073473	     -1.54058934	      0.98642644	      0.32617411	    -17.52561796	    -12.49282992	    -28.02905167	     31.24734100	     -3.79318985	      0.54536898	      4.42052104	     14.19789534	     -9.22633323	      5.73031275	      8.61194486	    -14.99916381	      2.75130219	     -3.02694258	      0.04801928	     -6.99307870	     15.08330573	     -9.22633323	    -20.98418562	    -13.70520700	      4.41786916	     18.48685456	    -15.32110261	     24.19655368	     40.28031376	     90.00000001	      0.00000000	      0.00000000	    -10.94578980	    -13.57383004	      6.01219227	     38.34972799	     90.00000001	      0.00000000	      0.00000000
      0.59000000	      7.13950861	      7.58168479	     -3.38336251	     -1.53226121	      0.98796975	      0.32394870	    -16.62250093	    -13.12407442	    -28.26894332	     33.71484097	     -4.10889990	      0.58843498	      2.29347599	     12.86099306	     -9.19364715	      5.08261018	      8.84077955	    -14.74433789	      2.57326046	     -3.01624009	      0.04491187	     -6.50073282	     15.31445691	     -9.19364715	    -21.13724658	    -13.68924998	      4.09211448	     17.73755769	    -15.24763800	     24.04216380	     40.11671328	     90.00000001	      0.00000000	      0.00000000	    -10.17922206	    -13.80699916	      6.19091769	     38.17162983	     90.00000001	      0.00000000	      0.00000000
      0.60000000	      7.03889708	      7.59850941	     -3.13857354	     -1.52418508	      0.98927029	      0.32153061	    -15.48213766	    -13.79656632	    -28.21490428	     36.42988370	     -4.25110173	      0.63582142	      0.19152565	     10.76640955	     -9.14546728	      4.60215196	      9.10655333	    -14.46965433	      2.46902071	     -3.09208400	      0.04309254	     -6.11669319	     15.51195778	     -9.14546728	    -21.21821920	    -13.63724521	      3.73544281	     16.97491815	    -15.16329371	     23.77149982	     39.94362013	     90.00000001	      0.00000000	      0.00000000	     -9.36369567	    -14.07166397	      6.53853567	     37.98611596	     90.00000001	      0.00000000	      0.00000000
      0.61000000	      7.12747212	      7.48009285	     -3.02465770	     -1.51623797	      0.99084532	      0.31958393	    -14.45807163	    -14.23987424	    -27.61204562	     39.07556538	     -4.26616316	      0.68199727	     -1.91736224	      7.81422344	     -9.04327898	      3.83841746	      9.13094015	    -14.30876403	      2.26284257	     -2.98243338	      0.03949405	     -5.60836326	     15.66368170	     -9.04327898	    -21.50333038	    -13.49689919	      3.51649163	     16.27972112	    -15.06697666	     23.51016812	     39.68602449	     90.00000001	      0.00000000	      0.00000000	     -8.46819002	    -14.35302531	      6.95952852	     37.81263366	     90.00000001	      0.00000000	      0.00000000
